<svg width="338" height="542" viewBox="0 0 338 542" fill="none" xmlns="http://www.w3.org/2000/svg">
<path d="M0 30C0 13.4315 13.4315 0 30 0H117C133.569 0 147 13.4315 147 30V117C147 133.569 133.569 147 117 147H30C13.4315 147 0 133.569 0 117V30Z" fill="#EC5863"/>
<path d="M261 373C261 364.716 267.716 358 276 358H323C331.284 358 338 364.716 338 373V420C338 428.284 331.284 435 323 435H276C267.716 435 261 428.284 261 420V373Z" fill="#EC5863"/>
<path d="M32 480C32 471.716 38.7157 465 47 465H94C102.284 465 109 471.716 109 480V527C109 535.284 102.284 542 94 542H47C38.7157 542 32 535.284 32 527V480Z" fill="#EC5863"/>
</svg>
